<svg width="21" height="12" viewBox="0 0 21 12" fill="none" xmlns="http://www.w3.org/2000/svg">
<path fill-rule="evenodd" clip-rule="evenodd" d="M18.2715 1.80058H2.3201C2.03318 1.80058 1.80058 2.03318 1.80058 2.3201V8.7963C1.80058 9.08321 2.03318 9.31581 2.3201 9.31581H18.2715C18.5584 9.31581 18.791 9.08321 18.791 8.7963V2.3201C18.791 2.03318 18.5584 1.80058 18.2715 1.80058ZM2.3201 0C1.03874 0 0 1.03874 0 2.3201V8.7963C0 10.0776 1.03874 11.1164 2.3201 11.1164H18.2715C19.5528 11.1164 20.5916 10.0776 20.5916 8.7963V2.3201C20.5916 1.03874 19.5528 0 18.2715 0H2.3201Z" fill="#0688FF"/>
</svg>
